<svg id="Layer_5" enable-background="new 0 0 64 64" height="512" viewBox="0 0 64 64" width="512" xmlns="http://www.w3.org/2000/svg"><g><path d="m40.504 21h-1.688c.112-.314.184-.648.184-1 0-1.321-.864-2.433-2.053-2.832l7.29-9.114-4.702-7.054h-15.07l-4.702 7.054 7.29 9.114c-1.189.399-2.053 1.511-2.053 2.832 0 .352.072.686.184 1h-1.688c-1.321 0-2.505.886-2.877 2.153l-9.71 33.013 4.556 6.834h33.07l4.556-6.834-9.71-33.013c-.372-1.267-1.556-2.153-2.877-2.153zm-13.504 10.121c0-.618.503-1.121 1.121-1.121.295 0 .584.119.793.328l.387.387c-.188.391-.301.823-.301 1.285s.113.894.301 1.285l-.387.387c-.209.209-.498.328-.793.328-.618 0-1.121-.503-1.121-1.121zm4 .879c0-.552.448-1 1-1s1 .448 1 1-.448 1-1 1-1-.448-1-1zm3.699-1.285.387-.387c.209-.209.498-.328.793-.328.618 0 1.121.503 1.121 1.121v1.758c0 .618-.503 1.121-1.121 1.121-.295 0-.584-.119-.793-.328l-.387-.387c.188-.391.301-.823.301-1.285s-.113-.894-.301-1.285zm.077-2.504c-.41.156-.791.389-1.104.703l-.387.387c-.391-.188-.823-.301-1.285-.301s-.894.113-1.285.301l-.387-.387c-.313-.313-.694-.547-1.105-.703l-2.605-5.211h1.382 8 1.382zm-5.295-11.211-6.401-8h5.1l1.6 8zm9.519-13.197 2.132 3.197h-4.263zm-3.876 2.208-1.506-3.011h3.513zm-1.742.989h-2.764l1.382-2.764zm-4.506-.989-2.008-3.011h3.513zm-1.744.989h-4.263l2.131-3.197zm4.688 10-1.6-8h3.561l-1.6 8zm4-8h5.1l-6.401 8h-.299zm-8.82 11c0-.552.448-1 1-1h8c.552 0 1 .448 1 1s-.448 1-1 1h-8c-.552 0-1-.448-1-1zm-2.618 3 2.609 5.22c-1.162.454-1.991 1.58-1.991 2.901v1.758c0 1.721 1.4 3.121 3.121 3.121.5 0 .986-.136 1.426-.363l-.533 3.199 1.973.328.699-4.196c.104.011.206.032.314.032.066 0 .128-.015.193-.02l.812 8.119 1.99-.199-.736-7.367c.486.296 1.046.467 1.62.467 1.721 0 3.121-1.4 3.121-3.121v-1.758c0-1.322-.829-2.447-1.992-2.902l2.61-5.219h.886c.18 0 .347.059.496.147v22.853c0 2.757-2.243 5-5 5h-8c-2.757 0-5-2.243-5-5v-22.853c.149-.088.316-.147.496-.147zm-3.382 5.944v17.056c0 3.859 3.141 7 7 7h8c3.859 0 7-3.141 7-7v-17.056l7.664 26.056h-37.328zm26.465 32.056h-30.93l-2.667-4h36.264z"/><path d="m11 18c-2.206 0-4 1.794-4 4s1.794 4 4 4 4-1.794 4-4-1.794-4-4-4zm0 6c-1.103 0-2-.897-2-2s.897-2 2-2 2 .897 2 2-.897 2-2 2z"/><path d="m7 13c0-1.654-1.346-3-3-3s-3 1.346-3 3 1.346 3 3 3 3-1.346 3-3zm-3 1c-.552 0-1-.448-1-1s.448-1 1-1 1 .448 1 1-.448 1-1 1z"/><path d="m11 9c2.206 0 4-1.794 4-4s-1.794-4-4-4-4 1.794-4 4 1.794 4 4 4zm0-6c1.103 0 2 .897 2 2s-.897 2-2 2-2-.897-2-2 .897-2 2-2z"/><path d="m54 29c-1.654 0-3 1.346-3 3s1.346 3 3 3 3-1.346 3-3-1.346-3-3-3zm0 4c-.552 0-1-.448-1-1s.448-1 1-1 1 .448 1 1-.448 1-1 1z"/><path d="m59 19c-2.206 0-4 1.794-4 4s1.794 4 4 4 4-1.794 4-4-1.794-4-4-4zm0 6c-1.103 0-2-.897-2-2s.897-2 2-2 2 .897 2 2-.897 2-2 2z"/><path d="m43 16c0 1.654 1.346 3 3 3s3-1.346 3-3-1.346-3-3-3-3 1.346-3 3zm3-1c.552 0 1 .448 1 1s-.448 1-1 1-1-.448-1-1 .448-1 1-1z"/><path d="m54 13c2.757 0 5-2.243 5-5s-2.243-5-5-5-5 2.243-5 5 2.243 5 5 5zm0-8c1.654 0 3 1.346 3 3s-1.346 3-3 3-3-1.346-3-3 1.346-3 3-3z"/><path d="m8 33c-1.654 0-3 1.346-3 3s1.346 3 3 3 3-1.346 3-3-1.346-3-3-3zm0 4c-.552 0-1-.448-1-1s.448-1 1-1 1 .448 1 1-.448 1-1 1z"/></g></svg>