<?xml version="1.0" standalone="no"?>
<!DOCTYPE svg PUBLIC "-//W3C//DTD SVG 20010904//EN"
 "http://www.w3.org/TR/2001/REC-SVG-20010904/DTD/svg10.dtd">
<svg version="1.0" xmlns="http://www.w3.org/2000/svg"
width="32" height="32" viewBox="0 0 1600.000000 1136.000000"
 preserveAspectRatio="xMidYMid meet">

<g transform="translate(0.000000,1136.000000) scale(0.100000,-0.100000)"
 style="fill:#FF00FF;" width="32" height="32" stroke="none">
<path d="M7957 10489 c-7 -4 -78 -9 -159 -12 -81 -3 -152 -9 -158 -12 -6 -4
-25 -6 -43 -4 -17 1 -39 -1 -47 -4 -8 -3 -58 -11 -110 -18 -123 -16 -132 -17
-215 -30 -38 -6 -79 -12 -90 -12 -11 -1 -22 -5 -25 -8 -5 -5 -167 -44 -185
-44 -5 0 -12 -3 -16 -7 -3 -4 -18 -9 -35 -11 -16 -2 -35 -6 -40 -10 -6 -3 -26
-9 -45 -12 -19 -3 -65 -17 -102 -31 -38 -13 -73 -22 -78 -18 -5 3 -9 1 -9 -5
0 -9 -51 -25 -66 -21 -4 1 -10 -3 -13 -9 -4 -6 -17 -12 -29 -14 -12 -2 -25 -6
-28 -10 -4 -4 -20 -7 -35 -7 -15 0 -29 -4 -31 -8 -3 -10 -208 -100 -236 -104
-9 -2 -19 -6 -22 -9 -10 -12 -90 -49 -90 -42 0 5 -4 3 -8 -3 -8 -13 -66 -44
-81 -44 -6 0 -27 -11 -47 -25 -20 -14 -40 -22 -45 -19 -5 3 -9 0 -9 -5 0 -6
-7 -11 -15 -11 -8 0 -15 -4 -15 -9 0 -5 -18 -16 -41 -25 -23 -9 -48 -23 -56
-31 -8 -9 -18 -13 -23 -10 -4 3 -10 -1 -13 -8 -3 -7 -23 -22 -46 -32 -22 -11
-41 -23 -41 -27 0 -5 -6 -8 -14 -8 -8 0 -28 -12 -45 -26 -17 -14 -31 -23 -31
-20 0 3 -11 -5 -24 -17 -13 -13 -37 -29 -53 -37 -15 -8 -35 -21 -43 -29 -8 -8
-38 -29 -66 -47 -29 -18 -72 -50 -97 -71 -85 -72 -115 -95 -121 -92 -3 2 -22
-15 -42 -38 -21 -24 -42 -43 -47 -43 -6 0 -25 -18 -44 -40 -19 -22 -38 -40
-43 -40 -10 0 -320 -310 -320 -320 0 -4 -16 -22 -35 -39 -19 -17 -35 -35 -35
-40 0 -5 -15 -22 -33 -38 -18 -16 -36 -37 -40 -46 -3 -9 -11 -17 -17 -17 -5 0
-10 -6 -10 -14 0 -7 -16 -26 -35 -40 -20 -15 -33 -31 -30 -36 3 -5 -1 -12 -8
-17 -8 -4 -20 -19 -27 -33 -15 -28 -61 -90 -98 -132 -13 -14 -23 -28 -21 -30
4 -3 -58 -96 -78 -116 -7 -7 -13 -20 -13 -28 0 -8 -4 -14 -10 -14 -5 0 -10 -7
-10 -15 0 -8 -4 -15 -10 -15 -5 0 -10 -5 -10 -11 0 -6 -13 -30 -29 -54 -16
-24 -32 -53 -36 -64 -3 -12 -11 -21 -16 -21 -5 0 -8 -3 -7 -7 3 -10 -37 -87
-54 -104 -8 -8 -26 -45 -42 -82 -16 -38 -35 -75 -43 -83 -8 -8 -11 -14 -8 -14
4 0 -2 -15 -12 -32 -11 -18 -28 -57 -38 -85 -10 -29 -23 -53 -28 -53 -4 0 -5
-4 -2 -10 3 -5 1 -10 -4 -10 -6 0 -10 -3 -9 -7 4 -14 -23 -83 -33 -83 -5 0 -8
-3 -7 -7 2 -10 -13 -64 -21 -78 -3 -5 -7 -19 -8 -30 -2 -10 -9 -23 -16 -27 -6
-4 -9 -8 -5 -8 10 0 -32 -114 -44 -118 -4 -2 -5 -8 -2 -13 3 -6 1 -15 -4 -22
-6 -7 -13 -32 -17 -56 -3 -23 -11 -55 -17 -70 -6 -14 -10 -32 -9 -38 1 -7 -2
-13 -6 -13 -5 0 -9 -8 -9 -17 0 -24 -46 -197 -54 -203 -3 -3 -7 -21 -9 -40 -1
-19 -5 -43 -8 -55 -2 -11 -5 -27 -5 -35 0 -8 -2 -22 -5 -30 -3 -8 -7 -32 -9
-54 -2 -21 -7 -43 -10 -48 -4 -6 -8 -35 -11 -66 -2 -31 -7 -59 -11 -62 -4 -3
-7 -16 -7 -30 0 -55 -18 -210 -24 -210 -21 0 -19 -790 2 -860 5 -17 40 -280
42 -321 1 -14 4 -30 7 -35 3 -5 9 -27 12 -49 4 -22 9 -56 12 -75 4 -19 9 -57
11 -85 3 -27 8 -52 13 -55 6 -5 54 -182 55 -205 0 -5 3 -14 6 -20 10 -17 28
-78 34 -115 3 -19 10 -44 15 -55 25 -53 39 -98 34 -106 -3 -5 -1 -9 4 -9 8 0
39 -78 35 -90 -1 -3 2 -9 6 -15 7 -9 12 -26 22 -70 2 -5 9 -16 16 -23 12 -12
17 -34 14 -54 0 -5 3 -8 8 -8 8 0 54 -102 52 -115 0 -2 15 -34 35 -70 20 -36
33 -65 29 -65 -3 0 1 -7 9 -15 9 -9 23 -38 33 -65 10 -28 21 -50 26 -50 4 0 5
-4 2 -10 -3 -5 -2 -10 3 -10 10 0 58 -81 54 -92 -1 -5 2 -8 7 -8 5 0 13 -10
17 -22 4 -13 16 -35 27 -50 l20 -27 -22 -54 c-12 -30 -23 -61 -25 -68 -1 -8
-5 -20 -9 -27 -5 -6 -6 -12 -3 -12 8 0 -65 -204 -75 -210 -4 -3 -10 -21 -12
-40 -3 -19 -6 -36 -7 -37 -2 -2 -3 -6 -4 -10 -8 -40 -30 -103 -36 -103 -4 0
-7 -6 -6 -13 1 -16 -35 -121 -44 -127 -4 -3 -10 -21 -13 -40 -7 -54 -18 -90
-27 -90 -4 0 -7 -6 -7 -12 2 -22 -26 -98 -35 -98 -5 0 -6 -4 -3 -10 3 -5 -3
-31 -14 -56 -12 -26 -21 -54 -21 -63 0 -9 -5 -22 -12 -29 -7 -7 -9 -12 -5 -12
7 0 -60 -200 -73 -215 -5 -6 -11 -24 -14 -40 -2 -17 -5 -31 -6 -32 -2 -2 -3
-6 -4 -10 -8 -40 -30 -103 -36 -103 -4 0 -7 -6 -7 -12 2 -22 -26 -98 -35 -98
-5 0 -6 -5 -3 -10 4 -6 2 -16 -3 -23 -6 -7 -13 -26 -16 -42 -2 -17 -5 -30 -6
-30 -1 0 -4 -11 -6 -25 -3 -14 -9 -26 -14 -28 -5 -2 -6 -10 -3 -18 3 -8 0 -14
-7 -14 -6 0 -9 -4 -6 -9 7 -11 -16 -71 -27 -71 -4 0 -6 -4 -2 -9 3 -5 -3 -33
-14 -63 -11 -29 -22 -68 -26 -86 -4 -17 -11 -32 -17 -32 -6 0 -9 -3 -6 -6 7
-6 -46 -170 -61 -188 -5 -6 -12 -29 -15 -50 -4 -22 -10 -44 -15 -50 -5 -6 -9
-15 -10 -21 0 -27 -25 -95 -34 -95 -6 0 -8 -2 -5 -5 3 -3 24 2 48 10 23 8 46
12 51 9 5 -3 9 -1 9 4 0 5 28 17 63 26 34 10 117 36 183 58 67 22 128 40 135
42 8 1 20 5 27 9 6 5 12 5 12 1 0 -3 7 -1 15 6 8 7 15 10 15 6 0 -3 16 1 36 9
20 8 40 12 45 9 5 -3 9 0 9 6 0 7 7 10 15 6 8 -3 15 -1 15 5 0 6 7 9 15 5 8
-3 15 -2 15 2 0 7 117 49 159 57 9 2 16 4 16 5 0 1 16 4 35 7 19 2 37 8 40 12
8 12 101 41 111 35 5 -3 9 0 9 6 0 7 7 10 15 6 8 -3 15 -1 15 5 0 6 7 9 15 5
8 -3 15 -2 15 3 0 5 30 17 68 26 37 10 116 35 176 57 60 21 111 36 114 33 3
-3 10 -1 16 5 7 5 27 12 45 15 19 3 42 10 53 16 10 5 22 7 27 4 5 -3 11 -1 13
3 3 8 150 61 181 66 7 1 17 5 24 9 6 4 31 10 55 13 24 4 45 10 48 14 8 11 71
30 81 24 5 -3 9 0 9 6 0 7 7 10 15 6 8 -3 15 -1 15 5 0 6 7 9 15 5 8 -3 15 -2
15 2 0 10 86 37 145 48 22 3 45 10 50 14 22 15 157 60 166 54 5 -3 9 0 9 6 0
7 7 10 15 6 8 -3 15 -1 15 5 0 5 6 9 13 8 6 -1 20 1 30 6 22 9 97 -11 97 -27
0 -6 3 -8 6 -5 8 8 64 -24 64 -36 0 -4 4 -6 9 -2 5 3 16 -1 24 -10 8 -8 27
-16 43 -19 15 -3 30 -9 33 -13 3 -4 13 -9 21 -11 8 -2 17 -8 18 -13 2 -5 8 -7
13 -3 5 3 9 0 9 -6 0 -6 4 -9 9 -5 5 3 15 0 23 -7 7 -7 20 -14 28 -16 8 -2 29
-10 45 -17 17 -7 63 -25 103 -41 39 -15 72 -31 72 -36 0 -5 4 -7 9 -4 5 3 31
-3 57 -13 61 -24 87 -34 97 -36 4 -2 9 -4 12 -5 3 -1 8 -3 13 -4 43 -9 102
-31 102 -38 0 -5 4 -7 9 -4 8 5 82 -15 126 -34 11 -5 38 -12 59 -15 48 -7 88
-16 101 -23 5 -4 17 -7 25 -7 30 -2 285 -57 305 -66 11 -4 54 -10 95 -13 41
-3 91 -7 110 -10 19 -2 73 -6 120 -10 47 -3 99 -8 115 -11 32 -5 285 -18 345
-17 100 1 439 24 550 38 25 3 79 7 120 10 41 3 85 10 97 16 12 6 29 8 37 5 9
-4 16 -1 16 4 0 7 11 9 25 7 13 -3 26 -2 27 1 3 6 185 50 233 57 11 1 20 3 20
4 0 2 9 4 20 6 47 7 83 17 178 49 55 19 104 32 109 29 4 -3 8 0 8 6 0 7 7 10
15 6 8 -3 15 -1 15 4 0 7 64 27 110 33 8 1 17 5 20 9 9 12 108 47 114 41 3 -4
6 -2 6 4 0 5 19 16 43 23 23 8 77 31 120 52 43 21 99 47 125 57 26 11 79 37
119 59 39 22 74 37 77 34 3 -3 6 -1 6 5 0 10 47 32 60 29 3 -1 15 8 27 19 12
11 39 29 60 40 21 11 44 26 51 32 7 7 22 13 32 13 10 0 21 7 24 16 3 8 10 13
15 10 5 -3 12 1 15 10 3 8 10 13 15 10 5 -3 12 1 15 10 3 8 10 12 16 9 5 -3
10 -1 10 5 0 6 10 14 23 19 12 5 46 27 74 50 29 22 57 41 63 41 5 0 10 5 10
10 0 6 6 10 13 10 8 0 24 11 37 25 13 14 28 25 34 25 6 0 17 9 24 20 7 11 18
20 26 20 8 0 16 7 20 15 3 8 11 15 18 15 7 0 19 9 26 20 7 11 16 20 21 20 9 0
37 24 103 88 16 15 28 24 28 20 0 -8 111 94 219 203 95 95 231 239 228 242 -1
2 16 23 73 85 16 19 30 38 30 43 0 5 7 12 15 15 8 4 15 12 15 20 0 8 9 19 20
26 11 7 20 18 20 25 0 6 8 18 18 25 9 7 23 25 31 41 8 15 18 27 23 27 4 0 8 7
8 15 0 8 9 19 20 25 11 6 20 16 20 23 0 7 14 27 30 45 16 19 32 42 35 53 4 10
11 19 16 19 6 0 7 5 4 10 -3 6 1 13 9 16 9 3 14 10 11 14 -3 5 2 13 11 18 9 5
15 11 14 13 -4 8 23 59 32 59 4 0 8 6 8 13 0 6 21 44 46 82 25 39 53 87 61
108 8 20 19 37 25 37 5 0 7 4 4 8 -3 5 4 19 15 30 11 12 17 22 14 22 -2 0 8
26 24 58 16 31 44 90 62 130 17 39 36 72 40 72 5 0 9 7 9 16 0 25 82 224 92
224 5 0 6 5 3 10 -4 6 -2 17 4 24 6 7 13 23 15 37 3 13 5 24 6 24 1 0 4 11 6
25 3 14 9 26 14 28 5 2 6 10 3 18 -3 8 0 14 7 14 6 0 9 4 6 9 -3 4 10 54 29
109 19 56 38 118 41 139 3 21 9 42 12 48 3 5 7 16 7 25 4 33 60 265 66 270 3
3 9 39 12 80 4 41 15 147 27 235 22 174 40 430 40 565 0 124 -18 397 -35 534
-8 66 -13 122 -10 124 2 3 0 12 -5 21 -5 10 -11 55 -15 102 -3 46 -10 93 -15
104 -9 20 -62 247 -65 275 0 9 -4 20 -7 25 -3 6 -9 26 -12 46 -3 20 -10 49
-16 63 -5 15 -8 32 -4 37 3 5 1 9 -4 9 -10 0 -43 100 -36 112 3 4 0 8 -6 8 -7
0 -10 6 -7 14 3 8 2 16 -3 18 -5 2 -11 14 -14 28 -2 14 -5 26 -7 28 -1 1 -2 5
-4 10 -2 8 -8 23 -38 101 -11 29 -20 60 -20 67 0 8 -4 14 -8 14 -8 0 -34 70
-31 83 1 4 -2 7 -6 7 -5 0 -9 6 -9 13 0 8 -21 55 -47 105 -25 51 -43 92 -39
92 4 0 2 4 -5 8 -7 5 -14 18 -17 29 -2 12 -11 33 -20 47 -10 14 -14 26 -11 26
4 0 -2 10 -13 21 -11 12 -28 42 -38 65 -10 24 -22 44 -26 44 -5 0 -6 4 -2 9 3
5 -1 15 -8 23 -21 22 -48 68 -40 68 5 0 3 4 -3 8 -11 7 -85 126 -85 137 0 2
-11 17 -24 31 -14 15 -25 33 -25 40 0 8 -4 14 -10 14 -5 0 -10 6 -10 14 0 8
-8 22 -17 32 -10 10 -18 20 -18 23 0 3 -15 21 -33 40 -17 19 -30 37 -27 39 4
4 -8 21 -39 52 -11 11 -16 20 -11 20 5 0 -1 7 -13 16 -12 8 -22 20 -22 26 0 6
-17 30 -37 53 -21 23 -54 61 -73 84 -19 23 -42 49 -50 58 -8 9 -15 19 -15 22
-1 3 -22 27 -48 54 -27 26 -45 47 -42 47 3 0 0 6 -7 14 -7 8 -16 12 -19 10 -4
-2 -21 13 -38 34 -43 51 -103 112 -112 112 -3 0 -17 16 -30 35 -13 19 -28 35
-32 35 -5 0 -32 23 -60 51 -28 28 -69 63 -91 79 -23 16 -56 44 -74 64 -19 20
-38 36 -43 36 -5 0 -38 25 -74 55 -35 30 -69 55 -75 55 -6 0 -13 7 -16 15 -4
8 -10 13 -14 10 -5 -3 -15 4 -23 15 -7 11 -16 18 -19 15 -3 -3 -13 4 -23 15
-10 11 -23 20 -29 20 -6 0 -25 12 -42 28 -16 15 -33 27 -37 27 -4 0 -22 12
-40 26 -17 14 -49 34 -69 44 -21 9 -38 22 -38 27 0 5 -4 7 -9 4 -5 -3 -20 5
-34 18 -14 13 -28 21 -31 18 -3 -3 -6 0 -6 6 0 6 -13 13 -30 17 -16 4 -30 11
-30 16 0 6 -4 8 -8 5 -5 -3 -20 5 -33 17 -13 12 -25 21 -26 20 -8 -7 -21 -1
-41 17 -12 12 -22 18 -22 14 0 -3 -6 -1 -14 5 -8 7 -24 14 -37 16 -12 3 -26
10 -31 17 -4 7 -8 10 -8 6 0 -4 -38 13 -85 38 -47 24 -87 44 -90 43 -13 -2
-95 35 -95 42 0 5 -3 8 -7 7 -10 -4 -107 33 -113 43 -3 4 -20 9 -38 12 -18 3
-40 11 -48 17 -7 7 -14 10 -14 6 0 -5 -172 51 -225 74 -11 5 -38 12 -60 15
-22 4 -44 10 -50 13 -5 4 -14 7 -20 7 -28 2 -125 29 -125 36 0 4 -9 5 -20 2
-11 -3 -20 -1 -20 5 0 6 -9 8 -20 5 -12 -3 -20 0 -20 6 0 7 -4 10 -9 6 -5 -3
-29 -1 -53 4 -71 16 -100 21 -158 27 -30 3 -59 9 -64 14 -5 5 -15 6 -22 3 -8
-3 -22 -2 -31 2 -10 4 -30 7 -45 6 -14 -1 -29 3 -33 9 -3 5 -11 8 -16 5 -5 -4
-51 -1 -102 5 -189 22 -597 41 -620 29z m508 -774 c33 -4 67 -9 75 -12 8 -3
27 -5 42 -4 14 1 29 -2 32 -7 3 -6 14 -8 24 -5 10 2 76 -8 148 -23 71 -14 152
-30 179 -35 79 -13 275 -71 275 -81 0 -5 5 -6 10 -3 6 4 16 2 23 -3 7 -6 26
-13 42 -16 17 -2 30 -5 30 -6 0 -1 9 -3 19 -5 39 -7 136 -48 136 -57 0 -5 5
-6 10 -3 6 4 26 -3 46 -14 19 -11 46 -23 60 -25 31 -6 276 -126 286 -140 4 -6
8 -7 8 -3 0 11 60 -25 60 -36 0 -4 4 -6 9 -3 4 3 23 -6 41 -19 19 -14 40 -25
47 -25 7 0 13 -5 13 -11 0 -5 5 -7 10 -4 6 3 13 -1 16 -9 3 -9 10 -14 14 -11
4 2 19 -6 33 -19 14 -13 28 -21 31 -18 3 3 6 1 6 -4 0 -6 17 -18 39 -27 21
-10 50 -28 65 -42 15 -14 30 -25 34 -25 4 0 15 -9 25 -20 9 -11 24 -20 32 -20
8 0 15 -4 15 -8 0 -5 9 -13 20 -18 10 -5 47 -34 81 -64 34 -30 66 -55 70 -55
4 0 23 -14 41 -31 71 -68 89 -84 96 -84 15 0 407 -413 401 -422 -1 -2 11 -17
27 -35 36 -39 79 -95 78 -103 0 -3 10 -13 23 -23 13 -10 23 -24 23 -32 0 -7 7
-15 15 -19 8 -3 15 -12 15 -19 0 -8 9 -22 20 -32 11 -10 18 -20 16 -22 -2 -2
6 -15 19 -29 13 -14 31 -42 41 -62 9 -20 20 -39 23 -42 13 -10 76 -115 74
-122 -2 -5 1 -8 6 -8 8 0 26 -39 29 -63 1 -4 9 -15 18 -25 19 -18 127 -239
127 -259 0 -7 4 -13 9 -13 5 0 6 -4 3 -10 -3 -5 -1 -10 5 -10 6 0 8 -4 5 -10
-3 -5 -1 -10 4 -10 6 0 10 -3 9 -7 -1 -5 3 -19 10 -33 28 -65 92 -230 95 -247
1 -10 6 -23 9 -29 4 -6 10 -26 13 -45 3 -19 10 -43 15 -54 18 -37 60 -197 54
-206 -3 -5 0 -9 7 -9 6 0 9 -8 6 -20 -3 -11 -1 -23 5 -26 5 -3 7 -12 4 -20 -3
-7 -1 -16 4 -19 5 -3 9 -13 9 -23 -1 -34 13 -128 21 -152 14 -39 32 -169 27
-184 -3 -7 -1 -18 4 -23 33 -33 32 -890 -1 -901 -6 -2 -7 -8 -4 -13 8 -13 -16
-182 -26 -189 -5 -3 -11 -34 -14 -70 -6 -65 -12 -105 -16 -105 -1 0 -3 -11 -4
-25 -5 -46 -18 -100 -25 -100 -3 0 -7 -15 -8 -32 -2 -18 -7 -34 -13 -36 -6 -2
-8 -7 -5 -12 5 -8 -9 -57 -26 -95 -5 -11 -11 -31 -13 -45 -3 -14 -5 -26 -7
-27 -1 -2 -3 -7 -4 -13 -1 -5 -3 -11 -5 -12 -1 -2 -3 -11 -5 -20 -8 -44 -38
-118 -46 -118 -6 0 -8 -4 -5 -9 3 -5 -5 -33 -19 -63 -14 -29 -25 -58 -25 -64
0 -17 -141 -308 -152 -315 -5 -3 -8 -9 -6 -12 1 -4 -6 -17 -17 -29 -10 -13
-19 -25 -19 -28 1 -14 -21 -60 -29 -60 -4 0 -6 -4 -3 -8 3 -5 -3 -18 -14 -29
-10 -12 -16 -23 -13 -27 3 -3 -2 -8 -11 -12 -9 -3 -14 -9 -11 -14 2 -4 -4 -16
-14 -27 -17 -18 -44 -62 -46 -73 -1 -12 -58 -90 -65 -90 -5 0 -13 -13 -19 -30
-5 -16 -15 -30 -20 -30 -6 0 -11 -7 -11 -15 0 -9 -7 -18 -15 -21 -8 -4 -15
-11 -15 -16 0 -11 -39 -62 -85 -111 -16 -17 -30 -35 -30 -40 0 -5 -7 -14 -15
-20 -8 -7 -35 -37 -60 -67 -81 -99 -380 -391 -457 -445 -15 -11 -39 -32 -53
-47 -13 -16 -30 -28 -37 -28 -7 0 -13 -4 -13 -10 0 -5 -6 -10 -14 -10 -8 0
-16 -7 -20 -15 -3 -8 -12 -15 -20 -15 -7 0 -16 -7 -20 -15 -3 -8 -12 -15 -20
-15 -7 0 -16 -7 -20 -15 -3 -8 -12 -15 -19 -15 -8 0 -22 -9 -32 -20 -10 -11
-20 -18 -22 -16 -2 2 -18 -9 -35 -25 -17 -15 -35 -26 -40 -23 -4 3 -8 0 -8 -6
0 -6 -15 -17 -34 -25 -19 -8 -38 -19 -41 -25 -4 -6 -11 -8 -16 -5 -5 4 -9 2
-9 -4 0 -11 -60 -47 -72 -43 -5 1 -8 -2 -8 -8 0 -5 -6 -10 -12 -10 -7 0 -42
-18 -78 -40 -35 -22 -94 -52 -130 -67 -36 -15 -67 -30 -70 -33 -9 -10 -94 -45
-102 -42 -5 1 -8 -2 -8 -7 0 -5 -17 -15 -37 -22 -48 -16 -42 -15 -80 -24 -18
-4 -33 -12 -33 -17 0 -6 -7 -8 -15 -4 -8 3 -15 2 -15 -2 0 -8 -81 -40 -117
-47 -10 -2 -19 -4 -20 -5 -2 -2 -7 -4 -13 -5 -5 -1 -12 -4 -15 -5 -3 -1 -9 -4
-15 -5 -5 -1 -12 -4 -15 -5 -3 -1 -9 -4 -15 -5 -5 -1 -11 -3 -12 -5 -2 -1 -10
-3 -18 -5 -8 -1 -54 -15 -102 -29 -49 -15 -92 -24 -98 -21 -5 3 -10 1 -10 -6
0 -6 -8 -9 -20 -6 -11 3 -20 1 -20 -5 0 -5 -8 -8 -17 -6 -10 1 -23 -1 -30 -5
-12 -7 -39 -12 -133 -22 -25 -3 -64 -10 -87 -16 -23 -6 -52 -9 -63 -6 -11 3
-20 2 -20 -3 0 -7 -233 -34 -260 -29 -8 1 -23 -1 -33 -6 -10 -4 -141 -5 -290
-2 -250 5 -423 20 -547 47 -25 5 -70 12 -100 15 -62 6 -223 43 -345 79 -44 13
-108 32 -142 42 -35 9 -63 21 -63 26 0 5 -4 7 -9 4 -11 -7 -71 16 -71 27 0 4
-4 6 -10 2 -5 -3 -26 4 -47 15 -21 11 -48 20 -60 20 -13 0 -23 5 -23 11 0 5
-4 8 -8 5 -15 -9 -401 180 -442 216 -8 7 -16 11 -17 8 -1 -3 -11 3 -23 12 -11
10 -20 15 -20 12 0 -3 -23 10 -50 30 -28 20 -55 36 -60 36 -6 0 -10 5 -10 11
0 5 -4 8 -9 4 -6 -3 -13 0 -18 7 -10 16 -43 20 -43 6 0 -6 -7 -8 -15 -4 -8 3
-15 2 -15 -3 0 -8 -51 -25 -105 -36 -11 -2 -67 -20 -125 -40 -58 -21 -114 -39
-125 -40 -11 -2 -21 -4 -22 -5 -2 -2 -6 -3 -10 -5 -5 -1 -15 -4 -23 -7 -99
-34 -144 -47 -151 -42 -5 3 -9 1 -9 -3 0 -8 -115 -50 -159 -58 -9 -2 -16 -4
-16 -5 0 -1 -10 -3 -22 -6 -43 -8 -48 -9 -53 -15 -9 -11 -102 -39 -111 -33 -5
3 -9 0 -9 -6 0 -7 -7 -10 -15 -6 -8 3 -15 1 -15 -5 0 -6 -6 -9 -14 -6 -8 3
-16 2 -18 -3 -2 -5 -37 -18 -78 -29 -41 -10 -113 -33 -159 -50 -46 -17 -88
-28 -92 -25 -5 3 -9 0 -9 -6 0 -7 -7 -10 -15 -7 -8 4 -17 2 -20 -4 -4 -5 -10
-7 -15 -4 -5 3 -11 1 -14 -3 -3 -5 -16 -9 -28 -8 -18 1 -22 7 -20 26 1 14 7
27 12 28 6 2 8 7 5 12 -4 7 12 55 35 105 6 11 12 31 14 45 3 14 5 26 7 28 1 1
2 5 3 10 1 4 6 22 10 40 4 17 12 32 16 32 5 0 7 7 4 15 -4 8 -1 15 5 15 6 0
10 3 9 7 -4 16 14 73 22 73 5 0 7 7 4 15 -4 8 -1 15 6 15 6 0 8 4 5 10 -3 5
-1 18 4 28 6 11 12 32 15 48 7 37 78 237 86 244 4 3 9 21 13 40 3 19 10 49 17
65 6 17 12 32 12 35 1 14 61 176 68 185 5 6 11 24 14 40 2 17 5 31 6 33 2 1 4
7 5 12 1 6 4 12 5 15 1 3 3 8 4 13 1 4 6 22 10 39 4 18 12 33 17 33 6 0 8 4 5
8 -3 5 6 39 20 76 l24 68 -30 36 c-16 20 -30 42 -30 49 0 7 -4 13 -10 13 -5 0
-10 7 -10 15 0 8 -4 15 -10 15 -5 0 -10 5 -10 10 0 6 -8 20 -19 31 -10 11 -27
37 -37 59 -10 22 -22 40 -26 40 -5 0 -8 5 -8 10 0 6 -11 28 -25 50 -14 22 -23
40 -20 40 3 0 -3 9 -13 20 -9 12 -17 24 -16 28 0 4 -4 12 -8 17 -18 22 -77
145 -70 145 4 0 2 4 -4 8 -13 8 -47 72 -39 72 4 0 -1 7 -9 16 -9 8 -14 20 -11
25 4 5 1 9 -5 9 -6 0 -9 4 -6 8 3 5 -5 29 -18 53 -13 25 -26 53 -28 64 -1 11
-9 26 -15 33 -7 7 -14 20 -14 28 -2 22 -4 28 -16 50 -7 11 -14 32 -16 45 -3
13 -21 71 -41 127 -20 57 -33 108 -30 113 3 5 0 9 -6 9 -7 0 -10 7 -7 15 4 8
2 17 -3 20 -7 4 -19 52 -25 105 -1 8 -7 34 -14 58 -7 23 -9 47 -6 52 3 6 2 10
-3 10 -11 0 -57 245 -48 258 4 6 2 14 -4 17 -6 4 -11 21 -11 38 0 18 -3 59 -6
92 -9 79 -9 691 0 775 3 36 6 78 6 93 1 16 3 33 7 38 3 6 8 36 10 67 2 31 8
58 13 60 6 2 8 9 5 16 -3 8 7 65 21 127 15 63 31 138 36 168 11 59 76 270 89
286 5 6 11 24 14 40 2 17 5 31 6 33 2 1 3 5 4 10 6 30 42 112 49 112 4 0 6 4
3 8 -3 5 9 38 26 73 17 35 31 70 31 77 0 6 5 12 10 12 6 0 8 3 4 6 -7 8 130
284 142 284 4 0 8 6 8 13 0 8 14 35 32 60 17 26 29 47 26 47 -3 0 11 25 31 55
20 30 41 55 45 55 5 0 9 9 9 20 0 11 5 20 10 20 6 0 10 7 10 15 0 8 5 15 10
15 6 0 10 6 10 14 0 8 8 21 19 28 10 7 19 16 19 21 2 10 32 53 55 78 9 10 17
21 17 24 -1 9 84 115 92 115 5 0 8 6 8 13 0 7 41 54 90 105 49 51 90 96 90
100 0 15 76 82 85 75 4 -5 5 -3 2 4 -4 7 18 33 53 65 34 29 93 83 133 121 39
37 76 67 82 67 6 0 16 9 23 20 7 11 16 20 21 20 5 0 26 15 46 33 20 17 40 31
43 31 4 -1 13 7 20 17 7 11 19 19 25 19 7 0 30 15 52 34 22 19 43 32 47 30 4
-3 11 4 17 14 5 10 27 27 48 38 21 10 40 21 43 24 15 16 90 59 90 53 0 -5 5 0
11 10 6 9 14 15 20 12 5 -4 9 -2 9 2 0 8 48 30 62 29 4 -1 14 8 22 19 9 11 16
16 16 10 0 -6 3 -6 8 1 12 17 79 54 85 47 4 -3 7 -1 7 5 0 7 9 12 19 12 11 0
23 5 26 10 4 6 11 8 16 5 5 -4 9 -2 9 3 0 10 100 58 112 55 4 -2 8 2 8 8 0 5
5 7 10 4 6 -3 10 -1 10 6 0 7 3 10 6 6 4 -3 19 0 35 9 16 8 29 11 29 7 0 -5 4
-3 8 3 7 10 126 63 152 68 8 1 25 7 37 14 13 7 42 15 65 18 24 4 45 10 48 14
7 12 250 81 260 75 5 -3 11 -1 15 4 3 5 13 10 23 10 9 0 33 3 52 7 19 4 45 8
58 8 12 1 22 4 22 7 0 9 139 31 151 24 5 -4 9 -2 9 3 0 5 44 14 98 20 121 13
114 13 196 17 38 2 71 6 74 9 7 7 533 -1 607 -9z"/>
<path d="M6409 8072 c-13 -6 -41 -15 -61 -18 -21 -4 -38 -11 -38 -17 0 -6 -3
-7 -6 -4 -4 3 -15 -5 -26 -18 -11 -14 -23 -25 -26 -25 -11 0 -178 -166 -185
-184 -4 -9 -11 -16 -17 -16 -5 0 -10 -6 -10 -14 0 -8 -14 -26 -31 -40 -17 -14
-28 -26 -24 -26 3 0 -5 -15 -19 -33 -15 -19 -26 -39 -26 -45 0 -7 -4 -12 -10
-12 -6 0 -9 -3 -8 -7 3 -13 -35 -83 -44 -83 -5 0 -6 -4 -3 -10 3 -5 1 -10 -4
-10 -6 0 -11 -6 -11 -14 0 -8 -16 -65 -35 -127 -56 -177 -78 -325 -71 -471 9
-180 10 -198 17 -198 6 0 34 -136 32 -157 0 -7 2 -13 6 -13 6 0 24 -56 37
-112 1 -5 2 -9 3 -10 2 -2 4 -12 6 -24 3 -11 16 -45 29 -74 14 -30 23 -57 20
-62 -3 -4 -1 -8 5 -8 8 0 22 -26 26 -50 0 -3 9 -20 18 -37 10 -18 15 -33 12
-33 -4 0 2 -12 13 -27 26 -38 67 -116 64 -125 -1 -5 2 -8 7 -8 5 0 12 -12 16
-27 3 -15 10 -30 14 -33 9 -6 91 -127 91 -134 0 -3 16 -28 35 -55 19 -26 35
-53 35 -60 0 -6 5 -11 10 -11 6 0 10 -7 10 -15 0 -8 5 -15 10 -15 6 0 10 -4
10 -9 0 -9 123 -195 148 -223 8 -10 11 -18 6 -18 -5 0 2 -7 14 -16 12 -8 22
-22 22 -30 0 -8 7 -17 15 -20 8 -4 12 -10 9 -15 -3 -5 0 -9 7 -9 7 0 10 -2 7
-5 -2 -3 15 -26 39 -51 24 -26 43 -50 43 -55 0 -4 16 -25 35 -46 19 -21 35
-41 35 -45 0 -4 20 -29 45 -55 24 -26 45 -53 45 -60 0 -6 4 -13 8 -15 4 -1 36
-34 71 -73 90 -99 341 -355 341 -347 0 3 20 -16 45 -41 25 -26 45 -44 45 -40
0 4 17 -9 38 -29 65 -64 80 -76 85 -72 3 3 14 -6 25 -20 11 -15 25 -26 31 -26
6 0 11 -4 11 -10 0 -5 6 -10 14 -10 8 0 21 -9 29 -20 8 -11 16 -17 20 -14 3 3
13 -6 22 -20 10 -14 21 -24 25 -21 4 2 15 -4 25 -15 10 -11 24 -20 32 -20 7 0
13 -4 13 -10 0 -5 6 -10 14 -10 8 0 22 -10 30 -22 9 -12 16 -19 16 -14 0 5 15
-3 34 -18 19 -14 39 -26 45 -26 6 0 11 -5 11 -11 0 -5 4 -8 8 -5 5 3 19 -4 30
-15 12 -11 22 -16 22 -12 0 4 7 -1 15 -11 8 -11 15 -16 15 -10 0 5 7 0 16 -11
8 -11 17 -19 20 -17 8 5 104 -42 104 -51 0 -5 5 -5 10 -2 6 3 10 1 10 -5 0 -6
5 -8 10 -5 6 3 10 1 10 -6 0 -7 3 -10 6 -6 6 6 64 -19 74 -33 3 -3 26 -12 53
-20 26 -7 47 -17 47 -21 0 -5 3 -8 8 -7 13 5 122 -44 122 -55 0 -6 3 -7 7 -4
3 4 11 3 17 -2 7 -6 24 -12 40 -15 15 -3 34 -10 42 -17 8 -6 14 -9 14 -6 0 9
144 -54 152 -67 4 -6 8 -7 8 -3 0 4 8 3 18 -2 11 -6 31 -12 46 -15 39 -7 200
-69 204 -78 2 -5 8 -5 14 -2 6 4 13 2 17 -4 3 -5 22 -12 41 -15 40 -7 75 -15
75 -17 0 -1 9 -3 20 -4 11 -2 56 -11 100 -20 101 -22 216 -23 325 -2 47 8 106
17 131 19 25 2 50 6 55 9 5 4 25 9 44 12 40 6 251 99 293 128 15 11 27 17 27
14 0 -3 11 5 24 17 13 13 37 29 53 37 82 42 234 193 255 253 6 15 15 27 21 27
6 0 8 3 4 6 -5 6 19 78 43 129 5 11 11 31 14 45 12 77 30 156 36 165 3 6 6 60
6 120 -1 125 -11 147 -78 180 -21 10 -38 23 -38 28 0 6 -3 8 -6 4 -3 -3 -27 7
-52 22 -26 15 -73 40 -104 56 -32 15 -58 33 -58 38 0 6 -3 8 -6 4 -3 -3 -27 8
-52 24 -25 16 -51 29 -58 29 -7 0 -20 7 -28 16 -9 8 -16 12 -16 9 0 -7 -91 43
-100 55 -3 4 -22 13 -42 19 -21 7 -38 17 -38 23 0 6 -3 8 -7 5 -6 -7 -73 30
-85 47 -4 6 -8 8 -8 4 0 -4 -64 25 -141 64 -78 39 -149 72 -158 73 -9 2 -16 4
-16 5 0 1 -26 3 -57 4 -32 2 -58 -1 -58 -6 0 -5 -4 -6 -10 -3 -5 3 -10 1 -10
-4 0 -6 -7 -11 -15 -11 -8 0 -15 -4 -15 -9 0 -14 -158 -210 -181 -224 -10 -6
-19 -15 -19 -19 0 -3 -30 -39 -67 -79 -168 -180 -209 -219 -250 -235 -38 -15
-46 -15 -97 0 -30 9 -58 21 -61 26 -3 6 -15 10 -26 10 -10 0 -19 5 -19 11 0 5
-4 7 -10 4 -5 -3 -10 -1 -10 5 0 6 -4 8 -10 5 -5 -3 -10 -1 -10 5 0 6 -4 8
-10 5 -5 -3 -10 -1 -10 5 0 6 -4 9 -8 6 -5 -3 -34 11 -66 30 -31 18 -64 34
-72 34 -7 0 -14 5 -14 12 0 6 -3 8 -6 5 -8 -8 -64 24 -64 36 0 4 -3 6 -8 3 -4
-2 -33 13 -64 35 -32 21 -60 39 -63 39 -10 0 -100 63 -103 72 -2 4 -10 8 -18
8 -8 0 -14 5 -14 10 0 6 -7 10 -15 10 -9 0 -18 7 -21 15 -4 8 -12 15 -19 15
-6 0 -20 10 -31 21 -10 12 -46 42 -79 67 -33 25 -73 57 -90 72 -55 50 -239
236 -278 281 -21 24 -58 67 -82 95 -25 28 -45 56 -45 62 0 6 -9 16 -20 22 -11
6 -20 17 -20 24 0 7 -9 21 -20 31 -11 10 -20 24 -20 30 0 7 -7 15 -15 19 -8 3
-15 12 -15 20 0 7 -7 17 -16 20 -8 3 -12 10 -9 16 3 5 1 10 -4 10 -6 0 -11 7
-11 15 0 8 -4 15 -8 15 -8 0 -43 54 -43 67 0 5 -7 12 -15 16 -8 4 -14 15 -14
22 0 8 -4 15 -9 15 -5 0 -12 14 -16 30 -4 17 -11 30 -16 30 -6 0 -7 5 -4 10 3
6 2 10 -3 10 -11 0 -40 41 -44 62 -2 7 -6 15 -9 18 -19 16 -36 75 -36 123 -1
63 5 74 87 157 93 94 208 221 214 236 3 8 10 14 16 14 5 0 10 5 10 11 0 6 23
49 50 96 43 74 50 92 50 139 0 30 -4 54 -8 54 -9 0 -40 82 -34 89 2 2 -1 7 -8
11 -6 4 -12 17 -13 28 -1 12 -4 22 -8 22 -6 0 -11 12 -24 63 -2 4 -3 8 -5 10
-1 1 -4 15 -6 32 -3 16 -9 32 -13 35 -8 5 -57 131 -63 160 -2 8 -6 17 -10 20
-4 3 -9 17 -11 31 -3 14 -30 89 -61 166 -31 78 -56 153 -56 167 0 14 -4 26 -9
26 -8 0 -24 41 -25 65 -1 6 -7 16 -13 23 -11 12 -14 23 -13 47 1 3 -6 13 -15
21 -8 9 -15 21 -15 28 0 25 -67 84 -106 95 -37 9 -240 23 -365 25 -30 1 -66
-5 -80 -12z"/>
</g>
</svg>
