<?xml version="1.0" standalone="no"?>
<!DOCTYPE svg PUBLIC "-//W3C//DTD SVG 20010904//EN"
 "http://www.w3.org/TR/2001/REC-SVG-20010904/DTD/svg10.dtd">
<svg version="1.0" xmlns="http://www.w3.org/2000/svg"
 width="1000.000000pt" height="880.000000pt" viewBox="0 0 1000.000000 880.000000"
 preserveAspectRatio="xMidYMid meet">

<g transform="translate(0.000000,880.000000) scale(0.100000,-0.100000)"
fill="#000000" stroke="none">
<path d="M5130 8784 c-116 -14 -198 -25 -220 -30 -14 -2 -54 -11 -90 -19 -85
-18 -180 -43 -205 -55 -11 -5 -54 -21 -95 -35 -138 -48 -386 -184 -510 -280
-307 -237 -509 -510 -641 -867 -31 -84 -81 -262 -93 -330 l-7 -38 -872 -2
-872 -3 -3 -577 c-2 -533 -1 -578 14 -578 33 0 401 51 544 76 336 58 656 130
950 216 96 28 185 52 197 54 37 4 414 132 568 192 28 11 88 34 135 51 47 17
94 36 105 41 11 5 87 37 168 70 242 99 968 427 1017 460 17 11 182 93 305 150
119 56 235 110 280 130 22 10 69 31 105 48 57 25 134 59 424 183 38 16 74 29
80 29 6 1 29 9 51 20 22 11 48 19 57 20 9 0 19 4 22 9 3 4 27 14 53 21 27 7
53 16 58 20 6 3 51 19 100 34 50 16 99 32 110 37 11 4 38 13 60 19 67 17 71
23 45 61 -13 19 -55 74 -94 123 l-71 88 -80 -6 c-44 -4 -91 -8 -105 -10 -239
-39 -363 -66 -535 -116 -67 -20 -249 -80 -270 -90 -11 -5 -65 -27 -120 -48
-173 -68 -544 -249 -720 -352 -59 -35 -186 -100 -193 -100 -4 1 5 11 19 23 75
64 148 124 168 137 13 8 31 22 41 30 10 8 28 22 40 30 12 8 41 29 64 46 47 35
63 44 222 140 100 59 166 95 284 155 21 11 120 54 235 103 17 7 59 23 95 36
36 12 74 26 85 30 11 5 61 21 110 35 50 15 101 31 115 36 14 5 54 15 90 23 36
8 83 19 105 25 51 13 90 21 138 28 20 3 37 9 37 13 0 4 -15 19 -34 34 -19 14
-41 32 -49 40 -39 39 -252 172 -355 222 -150 72 -146 70 -217 93 -178 57 -210
65 -350 87 -88 14 -426 26 -495 18z"/>
<path d="M7970 7759 c-36 -4 -108 -13 -160 -19 -124 -14 -329 -49 -435 -75
-11 -2 -47 -11 -80 -19 -33 -8 -116 -31 -185 -51 -69 -20 -141 -41 -160 -46
-19 -6 -44 -14 -55 -19 -23 -10 -97 -34 -107 -35 -3 0 -10 -3 -14 -7 -4 -5
-14 -8 -21 -8 -33 0 -102 -41 -106 -62 l-4 -23 -2 23 c-1 25 -7 27 -41 9 -14
-7 -54 -24 -90 -37 -59 -21 -120 -45 -175 -70 -11 -5 -42 -19 -70 -30 -27 -12
-68 -30 -90 -40 -22 -9 -58 -25 -80 -35 -38 -16 -74 -32 -155 -68 -46 -20
-196 -90 -285 -132 -38 -18 -115 -54 -170 -80 -159 -75 -233 -110 -345 -163
-133 -63 -299 -139 -385 -177 -16 -7 -74 -34 -128 -59 -55 -25 -101 -46 -104
-46 -3 0 -39 -16 -80 -35 -41 -19 -77 -35 -80 -35 -3 0 -19 -6 -36 -14 -18 -8
-61 -26 -97 -41 -36 -14 -74 -30 -85 -35 -11 -6 -51 -21 -90 -35 -38 -14 -83
-32 -100 -39 -16 -8 -106 -42 -200 -76 -93 -34 -175 -68 -181 -74 -10 -9 -71
-192 -119 -356 -34 -115 -87 -360 -115 -525 -40 -238 -52 -388 -57 -700 -5
-281 -1 -386 22 -595 4 -32 3 -39 -4 -24 -9 19 -30 176 -51 376 -13 124 -13
481 0 663 20 271 70 576 141 850 18 68 32 119 76 268 6 21 0 21 -40 3 -32 -14
-103 -37 -189 -62 -27 -8 -72 -21 -100 -30 -98 -29 -193 -55 -248 -69 -30 -7
-91 -23 -135 -35 -78 -21 -160 -40 -280 -65 -245 -52 -334 -69 -545 -99 -52
-8 -124 -19 -160 -24 -36 -6 -99 -14 -140 -18 -41 -4 -84 -8 -95 -9 -11 -2
-81 -8 -155 -14 -74 -6 -198 -16 -275 -23 -153 -13 -963 -15 -1032 -4 -95 17
-35 -18 197 -114 236 -97 371 -136 652 -185 103 -18 498 -55 588 -55 7 0 10
-852 10 -2419 l0 -2420 442 0 c242 -1 442 -2 443 -3 1 -2 9 -55 18 -118 20
-136 58 -300 71 -300 4 0 5 12 1 27 -28 112 -47 231 -48 306 l-2 88 283 1
c156 0 286 -2 289 -6 5 -5 -13 -240 -24 -303 -4 -28 -2 -33 15 -33 27 0 38 17
46 70 32 222 116 620 196 925 48 181 110 385 136 442 8 17 14 36 14 43 0 6 9
32 19 58 11 26 31 76 45 112 14 36 45 110 69 165 l43 100 120 80 c66 44 157
104 204 134 176 113 512 339 586 395 23 17 52 38 64 46 46 32 195 150 320 254
74 62 197 176 294 272 278 275 511 597 690 951 l36 73 67 -46 c36 -25 91 -58
122 -73 88 -44 281 -111 364 -126 20 -4 37 -13 37 -20 0 -6 -49 -53 -110 -104
-60 -50 -137 -124 -170 -164 -75 -90 -160 -260 -189 -380 -23 -93 -45 -314
-35 -352 3 -12 2 -25 -3 -28 -12 -7 -160 11 -233 29 -171 41 -264 98 -331 203
-16 25 -29 38 -29 30 0 -19 44 -84 89 -133 98 -105 269 -170 541 -206 41 -6
89 -12 105 -15 17 -2 73 -11 125 -20 195 -30 268 -51 397 -110 165 -76 267
-178 315 -314 43 -122 19 -324 -63 -531 -44 -111 -163 -352 -237 -482 -33 -57
-70 -123 -84 -148 -14 -25 -58 -101 -98 -170 -198 -343 -291 -512 -405 -740
-92 -184 -137 -281 -133 -286 5 -4 1408 -10 1408 -6 0 2 -38 45 -84 96 -190
211 -340 452 -395 635 -12 40 -20 75 -18 77 2 2 20 -29 41 -69 95 -182 234
-356 447 -561 213 -203 176 -187 423 -184 l207 3 -93 69 c-115 86 -312 241
-356 281 -19 16 -40 34 -48 38 -8 4 -14 13 -14 20 0 9 160 11 695 10 l695 -3
0 3355 0 3355 -697 0 c-384 0 -703 0 -709 0 -10 0 -39 50 -32 54 5 3 140 44
203 61 33 9 80 23 105 30 25 7 95 25 155 39 61 15 126 31 145 36 19 6 58 15
85 21 153 30 209 40 295 54 52 8 122 20 155 25 200 34 593 54 825 41 164 -9
494 -55 543 -76 9 -4 17 -3 17 3 0 5 -12 13 -27 17 -15 3 -45 15 -68 24 -22
10 -62 26 -90 36 -27 10 -63 23 -80 30 -16 7 -46 16 -65 20 -19 4 -39 11 -45
15 -5 4 -28 12 -50 18 -22 6 -74 20 -115 32 -267 75 -425 106 -715 141 -109
14 -614 19 -705 8z m-1355 -581 c-14 -84 -30 -166 -34 -183 -5 -16 -21 -84
-36 -150 -101 -452 -340 -946 -653 -1355 -203 -265 -526 -591 -776 -785 -21
-16 -45 -36 -52 -42 -70 -69 -509 -376 -769 -539 -28 -17 -76 -48 -108 -68
-31 -20 -60 -36 -62 -36 -3 0 -36 -20 -73 -44 -37 -24 -143 -89 -237 -143
-391 -230 -520 -307 -560 -336 -45 -34 -67 -48 -182 -112 -40 -22 -83 -50 -97
-62 -15 -13 -27 -22 -29 -21 -1 0 -45 -28 -97 -64 -138 -93 -165 -112 -168
-120 -2 -5 -10 -8 -18 -8 -8 0 -17 -7 -20 -15 -4 -8 -10 -15 -16 -15 -32 0
-488 -406 -488 -434 0 -7 -12 -23 -26 -37 -51 -47 -138 -175 -196 -287 -88
-170 -124 -295 -148 -507 -12 -108 9 -369 40 -506 42 -182 125 -400 241 -630
32 -65 59 -122 59 -126 0 -13 -79 125 -135 237 -68 136 -135 307 -175 445 -18
61 -36 119 -40 130 -34 87 -53 332 -40 510 13 190 62 356 159 539 44 84 53 99
70 120 7 9 11 16 8 16 -4 0 3 10 14 23 11 12 49 58 83 102 35 44 70 86 79 94
9 7 14 17 11 22 -3 5 1 9 8 9 7 0 23 16 36 35 12 19 27 35 33 35 6 0 37 26 69
58 32 31 77 73 101 92 23 19 54 47 68 63 14 15 29 27 34 27 4 0 47 31 95 68
48 38 107 82 132 99 141 98 239 161 257 167 11 4 32 17 47 31 37 34 154 109
258 165 50 26 61 33 393 235 116 70 253 153 305 185 159 95 209 128 490 313
240 159 387 265 585 421 295 232 637 573 831 826 224 293 419 634 521 910 13
36 28 74 33 85 11 25 84 245 99 300 26 96 90 402 92 446 2 22 2 22 6 -3 2 -15
-7 -96 -22 -180z m714 -123 c105 -229 115 -384 45 -670 -27 -109 -25 -281 4
-375 44 -141 104 -218 325 -414 48 -43 95 -92 103 -107 21 -41 5 -91 -53 -176
-62 -91 -78 -144 -57 -189 9 -19 20 -37 25 -39 4 -3 6 -12 2 -20 -3 -10 1 -15
14 -15 57 0 80 -77 44 -148 -23 -45 -58 -72 -131 -100 -30 -11 -73 -28 -95
-37 l-40 -16 49 6 c104 11 166 -32 166 -115 0 -52 -32 -84 -105 -105 -45 -14
-56 -14 -105 1 -30 9 -62 21 -71 27 -8 7 0 -3 20 -21 19 -18 51 -37 70 -42 60
-17 62 -20 45 -70 -31 -89 -34 -130 -17 -233 13 -82 14 -104 3 -137 -17 -53
-55 -86 -126 -111 -54 -20 -73 -21 -234 -16 -96 4 -193 10 -215 15 -22 5 -105
19 -185 31 -80 12 -221 33 -315 46 -93 14 -177 27 -185 29 -113 22 -188 48
-276 92 -39 19 -83 46 -99 58 -33 27 -33 28 23 161 50 120 125 356 160 506 6
25 36 97 65 160 83 177 133 291 177 409 15 41 51 116 80 165 57 99 140 267
140 284 0 28 67 14 141 -30 192 -114 356 -121 387 -16 13 40 24 117 17 117 -2
0 -30 -10 -62 -22 -75 -30 -194 -29 -308 2 -44 12 -90 24 -102 27 -13 3 -23 9
-23 14 0 4 20 64 44 131 24 68 55 158 67 201 24 77 24 77 54 71 17 -3 44 -12
60 -19 150 -65 275 -84 323 -48 62 46 26 87 -83 97 -41 4 -116 18 -167 32 -51
14 -103 28 -115 31 -27 6 -27 -1 -4 98 16 68 37 190 69 394 6 38 11 46 37 53
17 5 37 12 45 15 8 4 83 29 165 58 171 59 158 62 204 -40z m-494 -112 c-9 -62
-61 -324 -78 -388 -11 -44 -15 -50 -37 -47 -13 1 -25 4 -27 6 -2 1 8 53 22
113 14 61 34 160 45 219 16 81 26 114 42 127 33 27 40 21 33 -30z m-133 -536
c14 -5 13 -14 -12 -94 -52 -162 -111 -318 -127 -333 -14 -13 -15 -13 -10 5 17
68 109 412 113 423 2 7 7 11 11 9 5 -2 15 -7 25 -10z m-727 -1837 c-46 -112
-113 -261 -122 -270 -6 -6 -42 42 -43 56 0 6 20 42 45 79 25 37 70 109 101
161 31 52 59 93 61 90 2 -2 -17 -54 -42 -116z m-162 -271 c9 -17 17 -37 17
-44 0 -21 -102 -194 -192 -327 -174 -255 -455 -570 -705 -789 -233 -204 -615
-492 -953 -717 -30 -20 -57 -39 -60 -43 -13 -14 -193 -129 -197 -125 -13 12
126 235 260 416 149 201 182 236 320 334 168 118 227 160 302 210 33 23 64 45
70 49 5 4 66 49 135 99 209 153 346 272 545 472 168 169 297 319 391 453 16
24 34 43 39 43 6 0 18 -14 28 -31z"/>
<path d="M7252 4749 c7 -22 77 -38 143 -32 33 3 65 9 70 13 6 4 19 10 30 12
11 2 -20 4 -70 3 -49 0 -110 4 -134 9 -36 7 -43 6 -39 -5z"/>
</g>
</svg>
