<?xml version="1.0" standalone="no"?>
<!DOCTYPE svg PUBLIC "-//W3C//DTD SVG 20010904//EN"
 "http://www.w3.org/TR/2001/REC-SVG-20010904/DTD/svg10.dtd">
<svg version="1.0" xmlns="http://www.w3.org/2000/svg"
 width="1000.000000pt" height="880.000000pt" viewBox="0 0 1000.000000 880.000000"
 preserveAspectRatio="xMidYMid meet">

<g transform="translate(0.000000,880.000000) scale(0.100000,-0.100000)"
fill="#000000" stroke="none">
<path d="M5078 8565 c-1 -1 -54 -10 -116 -19 -103 -15 -268 -53 -332 -76 -229
-83 -415 -176 -546 -274 -23 -17 -55 -40 -70 -51 -50 -35 -147 -127 -222 -210
-187 -205 -322 -464 -392 -752 -12 -48 -24 -96 -26 -105 -5 -17 -53 -18 -820
-18 l-814 0 0 -525 c0 -289 3 -525 8 -525 48 1 551 75 717 106 187 35 560 123
740 175 60 17 118 32 130 34 44 5 646 210 720 245 11 5 85 34 163 65 79 31
158 62 175 70 18 8 102 44 187 81 248 105 603 266 630 284 14 9 59 31 100 50
41 18 126 57 189 87 62 29 115 53 118 53 2 0 28 11 56 24 63 29 119 54 217 95
41 18 111 48 155 66 44 19 123 51 175 70 52 20 109 42 125 49 17 8 73 28 125
45 52 18 104 36 115 41 23 10 205 66 248 76 15 3 27 10 27 14 0 11 -60 91
-126 166 l-52 60 -89 -8 c-165 -15 -545 -90 -593 -117 -8 -4 -40 -14 -70 -21
-30 -7 -59 -16 -65 -20 -5 -5 -30 -13 -55 -20 -25 -6 -58 -18 -75 -25 -16 -8
-70 -29 -120 -49 -167 -64 -390 -171 -717 -344 -54 -29 -101 -52 -105 -52 -23
1 228 189 387 291 102 65 182 111 310 173 52 26 103 52 114 58 10 5 35 16 55
23 20 8 68 27 108 44 174 72 444 151 691 202 34 7 62 16 62 19 -1 9 -101 85
-190 144 -107 72 -281 157 -415 204 -200 70 -396 100 -647 100 -102 0 -188 -1
-190 -3z"/>
<path d="M7874 7639 c-88 -4 -183 -10 -210 -13 -27 -4 -61 -9 -74 -11 -99 -13
-246 -38 -305 -51 -174 -40 -321 -76 -335 -83 -8 -4 -49 -16 -90 -26 -41 -10
-79 -21 -85 -25 -5 -4 -32 -13 -60 -20 -27 -7 -55 -17 -60 -21 -6 -4 -31 -13
-57 -19 -36 -9 -49 -18 -57 -39 -6 -17 -10 -20 -10 -8 -1 9 -3 17 -6 17 -7 0
-198 -69 -220 -80 -11 -5 -69 -29 -130 -53 -102 -41 -222 -93 -320 -137 -22
-10 -56 -25 -75 -33 -19 -9 -70 -32 -113 -51 -42 -20 -79 -36 -81 -36 -2 0
-55 -24 -117 -53 -63 -30 -267 -122 -454 -206 -187 -84 -349 -156 -360 -161
-76 -35 -215 -93 -295 -125 -52 -20 -108 -43 -125 -51 -51 -22 -201 -79 -396
-149 l-186 -66 -46 -142 c-59 -180 -88 -282 -121 -427 -45 -202 -54 -263 -95
-620 -14 -132 -13 -514 4 -655 17 -148 18 -185 4 -140 -5 17 -19 104 -30 195
-23 178 -31 504 -16 695 9 121 36 365 42 383 2 6 12 54 20 105 20 117 57 269
102 422 48 161 46 155 41 155 -8 0 -71 -21 -93 -31 -11 -5 -54 -18 -95 -30
-41 -11 -106 -30 -145 -41 -171 -49 -346 -92 -515 -129 -52 -11 -104 -23 -115
-25 -64 -15 -265 -50 -520 -90 -16 -2 -88 -11 -160 -19 -71 -8 -166 -19 -210
-25 -198 -24 -460 -34 -898 -34 l-469 0 74 -36 c40 -20 89 -42 108 -49 19 -8
49 -20 65 -26 268 -110 622 -181 1015 -202 l135 -8 0 -2190 0 -2190 415 -5
415 -5 3 -30 c13 -133 72 -372 124 -502 28 -68 35 -62 9 8 -52 146 -98 350
-103 464 l-3 60 273 3 272 2 0 -27 c0 -16 -4 -66 -10 -113 -17 -160 -17 -175
5 -172 26 5 32 17 40 77 13 98 77 413 121 595 88 357 178 638 288 890 79 184
70 171 179 241 55 35 105 66 111 68 5 2 15 8 21 13 5 4 109 72 230 149 413
263 621 414 880 640 317 276 597 627 775 972 25 48 49 87 53 87 5 0 25 -13 45
-30 74 -58 335 -164 460 -185 24 -4 42 -12 42 -20 0 -7 -42 -47 -94 -89 -163
-132 -240 -229 -305 -382 -41 -97 -71 -253 -71 -368 l0 -96 -33 0 c-72 0 -262
42 -326 71 -87 40 -124 70 -166 132 -19 28 -35 47 -35 40 0 -22 75 -122 120
-159 25 -20 61 -43 80 -51 19 -8 49 -21 65 -29 47 -22 197 -54 350 -74 77 -10
193 -28 258 -40 501 -88 706 -336 591 -713 -43 -142 -138 -351 -234 -517 -21
-36 -47 -81 -57 -100 -11 -19 -99 -168 -195 -330 -96 -162 -198 -337 -227
-388 -67 -121 -231 -447 -231 -461 0 -8 190 -11 655 -11 360 0 655 3 655 6 0
3 -27 35 -61 69 -154 160 -310 394 -369 555 -42 113 -37 129 11 41 95 -175
226 -333 422 -513 195 -177 154 -160 390 -165 l202 -4 -25 20 c-14 11 -81 62
-150 112 -173 128 -310 238 -310 249 0 7 233 10 655 10 l655 0 -2 3038 -3
3037 -661 3 -662 2 -16 25 c-19 28 -19 28 59 50 33 9 101 28 150 42 340 95
671 159 1035 199 183 21 611 24 735 6 44 -6 121 -17 170 -23 50 -6 115 -17
145 -25 94 -24 91 -9 -5 22 -27 9 -63 22 -80 30 -52 22 -201 70 -410 130 -86
25 -234 55 -420 85 -208 34 -497 48 -761 38z m-1349 -426 c-20 -192 -111 -552
-194 -763 -54 -139 -69 -175 -110 -258 -167 -339 -375 -628 -664 -921 -225
-229 -371 -353 -670 -568 -78 -57 -146 -106 -152 -111 -5 -4 -80 -52 -165
-106 -85 -55 -171 -109 -190 -122 -81 -52 -356 -213 -534 -314 -254 -144 -298
-169 -383 -221 -182 -111 -289 -174 -294 -174 -4 0 -31 -17 -60 -38 -30 -21
-121 -83 -204 -138 -264 -175 -357 -249 -530 -423 -100 -101 -225 -260 -225
-286 0 -5 -4 -10 -8 -10 -4 0 -31 -49 -60 -108 -81 -171 -130 -394 -119 -548
21 -307 71 -482 236 -829 83 -174 61 -158 -33 25 -140 272 -226 541 -246 762
-16 186 13 409 71 555 17 41 102 217 109 223 3 3 23 32 45 65 22 33 45 65 51
70 6 6 15 17 20 26 5 9 36 46 69 81 33 35 70 76 81 91 12 15 26 27 31 27 5 0
22 14 39 31 26 28 186 165 239 204 154 114 400 280 416 280 5 0 24 12 42 26
50 40 144 98 237 147 47 24 117 63 155 87 39 23 126 75 195 115 621 363 871
521 1183 748 671 489 1131 1024 1376 1602 18 41 36 84 41 95 5 11 32 83 60
160 52 147 95 311 126 483 10 56 20 102 22 102 3 0 1 -30 -3 -67z m650 -209
c92 -195 109 -345 60 -549 -52 -220 -43 -365 32 -507 29 -55 58 -90 142 -166
208 -191 221 -206 221 -241 0 -37 -18 -74 -72 -151 -50 -71 -58 -118 -29 -159
12 -17 19 -35 16 -41 -3 -5 0 -10 8 -10 29 0 67 -40 67 -71 0 -34 -25 -87 -49
-107 -32 -25 -110 -61 -157 -73 -73 -17 -71 -24 5 -21 63 3 69 2 99 -26 27
-25 32 -37 32 -74 0 -34 -6 -50 -23 -66 -50 -47 -139 -54 -213 -18 l-49 25 32
-27 c18 -15 55 -36 83 -46 40 -14 50 -22 44 -35 -22 -53 -35 -132 -31 -176 3
-27 9 -77 13 -111 9 -84 -11 -126 -80 -161 -46 -24 -65 -27 -181 -31 -129 -4
-173 0 -495 48 -74 11 -191 27 -260 35 -175 22 -319 60 -427 113 -130 63 -130
63 -93 146 55 121 116 297 163 471 13 50 45 131 69 180 25 50 60 124 78 165
18 41 38 89 45 105 8 17 28 66 46 109 18 44 56 119 84 168 29 48 70 124 91
168 34 73 40 80 67 80 16 0 56 -16 88 -36 130 -78 258 -106 329 -69 29 15 31
19 60 132 9 35 6 35 -60 5 -55 -26 -204 -22 -315 7 -49 13 -92 26 -93 27 -2 1
6 29 19 61 12 32 41 114 65 183 23 68 46 126 52 128 5 1 64 -15 131 -38 132
-44 210 -52 249 -24 29 20 29 57 0 72 -13 6 -52 13 -88 17 -63 6 -258 52 -272
64 -4 3 1 40 12 81 10 41 31 147 45 234 14 88 27 161 28 162 5 5 352 122 364
123 6 1 28 -33 48 -75z m-460 -111 c-16 -93 -58 -293 -72 -346 -14 -51 -18
-57 -37 -51 -30 9 -30 8 -16 61 6 26 27 117 45 202 19 85 40 158 47 162 29 19
39 10 33 -28z m-115 -499 c0 -18 -107 -320 -128 -359 -24 -46 -25 -14 -3 62
11 37 34 120 51 183 17 63 32 120 35 127 5 16 45 4 45 -13z m-670 -1605 c-35
-89 -133 -289 -141 -289 -5 0 -16 11 -24 24 -16 24 -14 28 53 128 38 57 81
125 97 151 15 26 29 46 32 44 2 -3 -6 -29 -17 -58z m-167 -301 l18 -31 -76
-127 c-120 -199 -280 -405 -445 -575 -250 -257 -478 -449 -815 -689 -109 -77
-632 -426 -639 -426 -34 0 133 251 327 492 83 103 81 102 512 393 453 307 751
574 997 893 44 56 85 102 91 102 7 0 20 -14 30 -32z"/>
<path d="M7108 4897 c7 -8 31 -18 53 -22 46 -8 179 12 179 27 0 6 -7 7 -17 2
-23 -11 -115 -11 -178 0 -45 8 -49 7 -37 -7z"/>
</g>
</svg>
